<svg xmlns="http://www.w3.org/2000/svg" viewBox="0 0 200 200">
  <defs>
    <linearGradient id="beamGrad0" x1="0%" y1="0%" x2="100%" y2="100%">
    <stop offset="0%" stop-color="#22d3ee"/>
    <stop offset="100%" stop-color="#0891b2"/>
  </linearGradient>
<linearGradient id="beamGrad1" x1="0%" y1="0%" x2="100%" y2="100%">
    <stop offset="0%" stop-color="#a855f7"/>
    <stop offset="100%" stop-color="#6d28d9"/>
  </linearGradient>
<linearGradient id="beamGrad2" x1="0%" y1="0%" x2="100%" y2="100%">
    <stop offset="0%" stop-color="#f472b6"/>
    <stop offset="100%" stop-color="#db2777"/>
  </linearGradient>

    <linearGradient id="bgGrad" x1="0%" y1="0%" x2="100%" y2="100%">
      <stop offset="0%" stop-color="#0b0f1a"/>
      <stop offset="100%" stop-color="#151233"/>
    </linearGradient>
    <radialGradient id="glow" cx="50%" cy="46%" r="55%">
      <stop offset="0%" stop-color="#7c3aed" stop-opacity="0.35"/>
      <stop offset="100%" stop-color="#7c3aed" stop-opacity="0"/>
    </radialGradient>
    <clipPath id="roundClip"><rect x="0" y="0" width="200" height="200" rx="40"/></clipPath>
  </defs>
  <g clip-path="url(#roundClip)">
    <rect x="0" y="0" width="200" height="200" fill="url(#bgGrad)"/>
    <circle cx="100" cy="92" r="110" fill="url(#glow)"/>
  <path d="M 141.88,98.54 L 167.55,143.00 L 134.64,124.00 L 121.48,101.20 Z" fill="#0e7490" opacity="0.9"/>
  <path d="M 83.79,143.00 L 32.45,143.00 L 65.36,124.00 L 91.69,124.00 Z" fill="#5b21b6" opacity="0.9"/>
  <path d="M 74.33,70.46 L 100.00,26.00 L 100.00,64.00 L 86.84,86.80 Z" fill="#9d174d" opacity="0.9"/>
  <path d="M 100.00,26.00 L 141.88,98.54 L 121.48,101.20 L 100.00,64.00 Z" fill="url(#beamGrad0)"/>
  <path d="M 167.55,143.00 L 83.79,143.00 L 91.69,124.00 L 134.64,124.00 Z" fill="url(#beamGrad1)"/>
  <path d="M 32.45,143.00 L 74.33,70.46 L 86.84,86.80 L 65.36,124.00 Z" fill="url(#beamGrad2)"/>
  </g>
</svg>